<?xml version="1.0" encoding="utf-8"?>
<svg width="26" height="26" viewBox="0 0 26 26" xmlns="http://www.w3.org/2000/svg">
  <g clip-path="url(#clip0_1_103)">
    <path d="M 16.695 6.245 C 16.082 5.668 15.482 5.568 15.173 5.56 C 15.155 5.559 15.136 5.558 15.118 5.558 L 10.882 5.558 C 10.864 5.558 10.846 5.559 10.828 5.56 C 10.519 5.568 9.919 5.667 9.305 6.245 C 7.891 7.573 7.76 10.693 7.633 15.226 C 7.62 15.693 8.047 16.051 8.508 16.051 C 8.525 16.051 8.542 16.051 8.56 16.05 C 9.043 16.021 9.381 15.608 9.384 15.123 C 9.408 11.271 9.545 9.218 10.035 8.198 L 10.035 11.826 L 10.035 13.902 L 10.035 24.645 C 10.035 25.393 10.642 26 11.391 26 C 12.139 26 12.746 25.393 12.746 24.645 L 12.746 14.749 L 13.254 14.749 L 13.801 24.695 C 13.801 25.443 14.408 26.05 15.156 26.05 C 15.905 26.05 16.512 25.443 16.512 24.695 L 15.816 14.001 L 15.965 11.826 L 15.965 8.199 C 16.256 9.218 16.295 11.62 16.269 15.522 C 16.266 16.006 16.609 16.42 17.093 16.449 C 17.11 16.45 17.128 16.45 17.145 16.45 C 17.606 16.45 18.023 16.091 18.02 15.624 C 17.992 11.042 18.109 7.573 16.695 6.245 Z"/>
    <path d="M13 4.9329C14.3622 4.9329 15.4665 3.82863 15.4665 2.46645C15.4665 1.10427 14.3622 0 13 0C11.6378 0 10.5336 1.10427 10.5336 2.46645C10.5336 3.82863 11.6378 4.9329 13 4.9329Z"/>
  </g>
</svg>