<svg width="26" height="26" viewBox="0 0 26 26" xmlns="http://www.w3.org/2000/svg">
<g clip-path="url(#clip0_2001_283)">
<path d="M8.3641 11.3341L9.78313 12.4415V8.94357H10.0353V13.0692L9.1002 24.5345C9.03936 25.2807 9.59502 25.9347 10.3409 25.9954C11.0868 26.0561 11.7411 25.501 11.8019 24.7548L12.6163 14.7703H13.3838L14.1981 24.7548C14.2589 25.5011 14.9131 26.0562 15.6591 25.9954C16.4051 25.9346 16.9606 25.2807 16.8998 24.5345L15.9647 13.0692V8.94357H16.2168V12.4414L17.6358 11.3341C17.7544 11.2415 17.8472 11.12 17.9052 10.9813C17.9633 10.8425 17.9846 10.6911 17.9672 10.5417C17.6946 8.18971 17.096 6.64561 16.1882 5.95226C15.6122 5.51235 15.0989 5.54908 14.9551 5.571C14.9423 5.57297 14.93 5.57626 14.9174 5.57867H11.0821C11.0696 5.57626 11.0574 5.57297 11.0446 5.571C10.9008 5.54908 10.3876 5.51224 9.81152 5.95226C8.90387 6.64561 8.30523 8.18971 8.03261 10.5417C8.01522 10.6911 8.03658 10.8425 8.09464 10.9813C8.1527 11.12 8.24549 11.2415 8.3641 11.3341Z" />
<path d="M13 4.9329C14.3622 4.9329 15.4665 3.82863 15.4665 2.46645C15.4665 1.10427 14.3622 0 13 0C11.6378 0 10.5336 1.10427 10.5336 2.46645C10.5336 3.82863 11.6378 4.9329 13 4.9329Z"/>
</g>
<defs>
<clipPath id="clip0_2001_283">
<rect width="26" height="26"/>
</clipPath>
</defs>
</svg>
