<svg width="26" height="26" viewBox="0 0 26 26"  xmlns="http://www.w3.org/2000/svg">
<g clip-path="url(#clip0_1_98)">
<g clip-path="url(#clip1_1_98)">
<path d="M13 4.93292C14.3622 4.93292 15.4665 3.82865 15.4665 2.46646C15.4665 1.10427 14.3622 0 13 0C11.6378 0 10.5336 1.10427 10.5336 2.46646C10.5336 3.82865 11.6378 4.93292 13 4.93292Z" />
<path d="M18.0759 7.46033C16.4215 5.76768 15.7081 5.51007 15.1943 5.50185C15.1689 5.49955 15.1434 5.49802 15.1174 5.49802H10.8822C10.8563 5.49802 10.8307 5.49966 10.8053 5.50185C10.2914 5.51007 9.57798 5.7679 7.92391 7.46033C7.0806 8.32326 6.37443 9.17227 6.34472 9.20801C6.08229 9.52416 6.07462 9.98018 6.32619 10.3051L9.21283 14.0322C9.3857 14.2554 9.64473 14.3722 9.90684 14.3722C9.9497 14.3722 9.99245 14.3682 10.0351 14.3619V24.6449C10.0351 25.3936 10.6421 26.0001 11.3903 26.0001C12.1388 26.0001 12.7458 25.3936 12.7458 24.6449V14.6897H13.2539V24.6449C13.2539 25.3936 13.8608 26.0001 14.6091 26.0001C15.3576 26.0001 15.9646 25.3936 15.9646 24.6449V14.3619C16.0072 14.3682 16.0501 14.3722 16.0929 14.3722C16.3549 14.3722 16.6141 14.2555 16.7869 14.0322L19.6736 10.3051C19.9252 9.98029 19.9175 9.52416 19.6551 9.20801C19.6256 9.17227 18.9193 8.32326 18.0759 7.46033ZM8.14951 9.79481C8.81293 9.03766 9.49817 8.3408 10.0351 7.86615V11.8255V11.8257V12.2295L8.14951 9.79481ZM15.9647 12.2297V7.86637C16.5015 8.34102 17.1867 9.03777 17.8504 9.79492L15.9647 12.2297Z" />
</g>
</g>
<defs>
<clipPath id="clip0_1_98">
<rect width="26" height="26" />
</clipPath>
<clipPath id="clip1_1_98">
<rect width="26" height="26" />
</clipPath>
</defs>
</svg>
