<svg width="26" height="26" viewBox="0 0 26 26" xmlns="http://www.w3.org/2000/svg">
<g clip-path="url(#clip0_1_103)">
<path d="M16.6953 6.24484C16.0817 5.66824 15.4821 5.56805 15.1728 5.56027C15.1545 5.55906 15.1363 5.55753 15.1176 5.55753H10.8824C10.8641 5.55753 10.8463 5.55917 10.8283 5.56027C10.5194 5.56772 9.91911 5.66747 9.30469 6.24473C7.89147 7.57267 7.31224 10.5942 7.58311 15.2255C7.6104 15.6916 7.99681 16.0512 8.45777 16.0512C8.47498 16.0512 8.49241 16.0508 8.50983 16.0497C8.99337 16.0214 9.36235 15.6065 9.33407 15.123C9.10869 11.2709 9.5452 9.21763 10.0353 8.19849V11.8257V13.9019V24.6447C10.0353 25.3934 10.6423 25.9999 11.3905 25.9999C12.139 25.9999 12.746 25.3934 12.746 24.6447V14.7492H13.2541V24.6447C13.2541 25.3934 13.861 25.9999 14.6093 25.9999C15.3578 25.9999 15.9648 25.3934 15.9648 24.6447V13.9019V11.8257V8.19893C16.4548 9.21818 16.8913 11.2715 16.6659 15.1231C16.6376 15.6066 17.0066 16.0215 17.4901 16.0498C17.5076 16.0508 17.5249 16.0513 17.5422 16.0513C18.0031 16.0513 18.3896 15.6917 18.4169 15.2256C18.6878 10.5943 18.1086 7.57278 16.6953 6.24484Z" />
<path d="M13 4.9329C14.3622 4.9329 15.4665 3.82863 15.4665 2.46645C15.4665 1.10427 14.3622 0 13 0C11.6378 0 10.5336 1.10427 10.5336 2.46645C10.5336 3.82863 11.6378 4.9329 13 4.9329Z" />
</g>
<defs>
<clipPath id="clip0_1_103">
<rect width="26" height="26" />
</clipPath>
</defs>
</svg>
