<?xml version="1.0" encoding="utf-8"?>
<svg width="26" height="26" viewBox="0 0 26 26" xmlns="http://www.w3.org/2000/svg">
  <g clip-path="url(#clip0_1_103)">
    <path d="M 16.695 6.245 C 16.1 5.649 15.482 5.568 15.173 5.56 C 15.155 5.559 15.136 5.558 15.118 5.558 L 10.882 5.558 C 10.864 5.558 10.846 5.559 10.828 5.56 C 10.519 5.568 9.919 5.667 9.305 6.245 C 7.891 7.573 8.009 10.643 8.23 15.226 C 8.253 15.693 8.644 16.051 9.105 16.051 C 9.122 16.051 9.139 16.051 9.157 16.05 C 9.64 16.021 10.003 15.608 9.981 15.123 C 9.806 11.271 9.545 9.218 10.035 8.198 L 9.836 11.776 L 9.836 13.852 L 9.289 20.019 L 10.035 24.645 C 10.035 25.393 10.642 26 11.391 26 C 12.139 26 12.348 25.443 12.348 24.695 L 11.603 19.896 L 12.746 14.749 L 13.254 14.749 L 13.429 19.921 L 13.801 24.695 C 13.801 25.443 14.408 26.05 15.156 26.05 C 15.905 26.05 16.512 25.443 16.512 24.695 L 15.91 19.966 L 15.865 13.554 L 15.716 11.577 L 15.965 8.199 C 16.256 9.218 16.395 11.421 16.667 15.273 C 16.701 15.756 17.007 16.171 17.491 16.2 C 17.508 16.201 17.526 16.201 17.543 16.201 C 18.004 16.201 18.465 15.84 18.418 15.375 C 17.972 11.002 18.051 7.602 16.695 6.245 Z"/>
    <path d="M13 4.9329C14.3622 4.9329 15.4665 3.82863 15.4665 2.46645C15.4665 1.10427 14.3622 0 13 0C11.6378 0 10.5336 1.10427 10.5336 2.46645C10.5336 3.82863 11.6378 4.9329 13 4.9329Z" />
  </g>
  <defs>
    <clipPath id="clip0_1_103">
      <rect width="26" height="26"/>
    </clipPath>
  </defs>
</svg>